<svg xmlns="http://www.w3.org/2000/svg" width="79.047" height="79.047" viewBox="171.977 812.228 79.047 79.047"><g data-name="Group 88"><g data-name="Group 86"><path d="M251.023 851.751c0-10.917-4.425-20.797-11.577-27.95-7.149-7.148-17.031-11.573-27.944-11.573-10.917 0-20.8 4.425-27.948 11.574-7.153 7.152-11.577 17.036-11.577 27.949 0 10.917 4.424 20.797 11.577 27.95 7.112 7.112 16.937 11.53 27.784 11.574l.164-.004h.51c10.71-.135 20.395-4.531 27.434-11.57 7.156-7.153 11.577-17.033 11.577-27.95Z" fill="#fcca00" fill-rule="evenodd" data-name="Path 296"/><path d="M239.446 823.802c-7.149-7.15-17.031-11.574-27.944-11.574-10.917 0-20.8 4.425-27.948 11.574-7.153 7.152-11.577 17.036-11.577 27.949 0 10.917 4.424 20.797 11.573 27.95l55.896-55.9Z" fill="#ffdd5d" fill-rule="evenodd" data-name="Path 297"/><path d="M242.09 851.75a30.485 30.485 0 0 0-8.96-21.628c-5.535-5.535-13.184-8.96-21.628-8.96-8.449 0-16.097 3.425-21.632 8.96-5.531 5.535-8.96 13.18-8.96 21.629 0 8.449 3.429 16.098 8.96 21.633a30.529 30.529 0 0 0 21.504 8.956l.128-.003h.394c8.288-.103 15.787-3.506 21.234-8.953 5.535-5.535 8.96-13.184 8.96-21.633Z" fill="#f7a200" fill-rule="evenodd" data-name="Path 298"/><path d="m233.13 830.118-43.26 43.262c-5.531-5.535-8.96-13.18-8.96-21.63 0-8.448 3.429-16.093 8.96-21.628 5.535-5.535 13.183-8.96 21.632-8.96 8.444 0 16.093 3.425 21.628 8.956Z" fill="#fdba29" fill-rule="evenodd" data-name="Path 299"/><path d="M189.87 833.279c5.535-5.536 13.183-8.96 21.632-8.96a30.488 30.488 0 0 1 21.628 8.96 30.478 30.478 0 0 1 8.92 20.069c.027-.53.04-1.061.04-1.597a30.485 30.485 0 0 0-8.96-21.63 30.489 30.489 0 0 0-21.628-8.96c-8.449 0-16.097 3.426-21.632 8.96-5.531 5.536-8.96 13.181-8.96 21.63 0 .526.015 1.047.041 1.565.401-7.815 3.737-14.852 8.919-20.037Z" fill="#f38e03" fill-rule="evenodd" data-name="Path 300"/></g><g data-name="Group 87"><path d="M213.153 871.806H201.51c-.81 0-1.448-1.738-1.448-3.881 0-2.144.637-3.881 1.448-3.881v-15.235l-1.506-2.549 1.506-2.548v-7.763c-.81 0-1.448-1.737-1.448-3.939 0-2.143.637-3.88 1.448-3.88h11.643c2.201 0 3.997.405 5.503 1.158 1.564.81 2.317 1.68 2.317 2.722v11.702c0 1.1-.405 2.027-1.158 2.78-.811.753-1.68 1.1-2.723 1.1 1.043 0 1.912.406 2.723 1.16.753.752 1.158 1.679 1.158 2.722v16.45c0 1.101-.753 2.028-2.317 2.781-1.564.753-3.36 1.1-5.503 1.1Zm-3.88-28.094h3.88v-7.763h-3.88v7.763Zm0 20.332h3.88v-12.57h-3.88v12.57Z" fill="#ffdd5d" fill-rule="evenodd" data-name="Path 301"/></g><path d="M222.248 851.647c.753.811 1.1 1.68 1.1 2.78v16.452c0 1.043-.753 2.027-2.317 2.78-1.506.696-3.36 1.1-5.445 1.1h-11.643c-.521 0-.985-.694-1.274-1.795h10.484c2.085 0 4.113-.347 5.967-1.216h.058c1.506-.753 2.954-1.97 2.954-3.823V851.59s.058.057.116.057Z" fill="#f38e03" fill-rule="evenodd" data-name="Path 302"/><path d="M223.348 834.965v11.643c0 1.1-.347 2.027-1.1 2.838-.174.116-.29.232-.464.348a4.78 4.78 0 0 0-1.158-1.854l-.348-.347c.116-.058.232-.174.29-.232l.058-.058c.984-.985 1.506-2.201 1.506-3.592V832.88c.81.58 1.216 1.275 1.216 2.086Z" fill="#f38e03" fill-rule="evenodd" data-name="Path 303"/><path d="M210.43 837.05h1.623v1.796h-.348v3.707h-1.274v-5.503Z" fill="#f38e03" fill-rule="evenodd" data-name="Path 304"/><path d="M210.43 852.632h1.623v1.796h-.348v8.457h-1.274v-10.253Z" fill="#f38e03" fill-rule="evenodd" data-name="Path 305"/></g></svg>