<svg xmlns="http://www.w3.org/2000/svg" width="32.428" height="35.264" viewBox="197.286 135.736 32.428 35.264"><g data-name="Group 94"><path d="M216.338 170.392h-1.216v-4.256h1.216v4.256z" fill="#c5c5c5" fill-rule="evenodd" data-name="Rectangle 23"/><path d="M216.338 164.92h-1.216v-1.216h1.216v1.216z" fill="#c5c5c5" fill-rule="evenodd" data-name="Rectangle 24"/><path d="M216.338 162.488h-1.216v-2.432h1.216v2.432z" fill="#c5c5c5" fill-rule="evenodd" data-name="Rectangle 25"/><path d="m221.12 140.829-.256 1.189-9.528-2.053.256-1.19 9.528 2.054z" fill="#c5c5c5" fill-rule="evenodd" data-name="Rectangle 26"/><path d="m224.226 141.365-.254 1.189-.97-.208.255-1.189.97.208z" fill="#c5c5c5" fill-rule="evenodd" data-name="Rectangle 27"/><path d="m229.222 142.438-.255 1.189-3.514-.755.255-1.19 3.514.756z" fill="#c5c5c5" fill-rule="evenodd" data-name="Rectangle 28"/><path d="M213.298 158.983h-1.216c0-1.853 1.388-3.698 3.907-5.197 1.258-.748 2.176-1.025 3.39-1.025 2.43 0 2.43 3.364 2.43 4.47h-1.216c0-3.255-.915-3.255-1.215-3.255-.982 0-1.706.224-2.767.855-2.137 1.271-3.313 2.745-3.313 4.152Z" fill="#c5c5c5" fill-rule="evenodd" data-name="Path 315"/><path d="M213.298 158.983h-1.216v-4.399c0-.857-.552-1.858-.848-2.154l-.127-.128c-.73-.732-1.36-1.365-2.33-1.365-.282 0-.41.093-1.078.677-.213.187-.466.407-.777.665l-.407.333c-.927.759-1.729 1.414-1.729 1.972v1.283h-1.216v-1.283c0-1.135 1.009-1.96 2.176-2.913l.4-.33c.302-.248.546-.462.753-.642.721-.632 1.119-.979 1.878-.979 1.476 0 2.388.916 3.192 1.725l.125.126c.486.485 1.204 1.779 1.204 3.013v4.399Z" fill="#c5c5c5" fill-rule="evenodd" data-name="Path 316"/><path d="M221.202 154.017h-1.216c0-1.877-.538-2.83-2.134-3.774-.411-.243-.64-.61-.84-.932-.315-.503-.505-.807-1.282-.807-1.596 0-2.432.918-2.432 1.824h-1.216c0-1.473 1.278-3.04 3.648-3.04 1.451 0 1.97.83 2.312 1.38.147.233.273.437.43.529 1.965 1.163 2.73 2.514 2.73 4.82Z" fill="#c5c5c5" fill-rule="evenodd" data-name="Path 317"/><path d="M215.73 171c-.142 0-.282-.025-.416-.074l-16.398-5.465a1.221 1.221 0 0 1-.817-1.157v-12.152c0-2.426 2.09-4.256 4.864-4.256 3.97 0 4.864 2.467 4.864 3.331h-1.217.609l-.609.01c0-.022-.212-2.125-3.647-2.125-2.37 0-3.648 1.567-3.648 3.04v12.156l16.399 5.47 9.758-4.865-.014-9.72-5.05-1.33.31-1.175 5.076 1.336c.537.167.88.633.88 1.168v9.728c0 .45-.247.861-.645 1.074l-9.74 4.87a1.198 1.198 0 0 1-.558.136Z" fill="#c5c5c5" fill-rule="evenodd" data-name="Path 318"/><path d="M213.363 148.633c-.37-.7-1.357-2.56-4.929-2.56-1.593 0-3.647 1.23-3.647 2.537h-1.217c0-2.257 2.928-3.753 4.864-3.753 4.304 0 5.584 2.414 6.004 3.208l-1.075.568Z" fill="#c5c5c5" fill-rule="evenodd" data-name="Path 319"/><path d="m208.03 148.573-.18-1.203a8.163 8.163 0 0 1 1.193-.082v1.216c-.37 0-.71.024-1.014.07Z" fill="#c5c5c5" fill-rule="evenodd" data-name="Path 320"/><path d="M207.826 155.192h-1.216c0-.534.212-.986.648-1.382l.818.9c-.208.189-.25.325-.25.482Z" fill="#c5c5c5" fill-rule="evenodd" data-name="Path 321"/><path d="M201.229 152.147a7.383 7.383 0 0 1-.09-1.21h1.216c0 .378.024.717.073 1.011l-1.2.2Z" fill="#c5c5c5" fill-rule="evenodd" data-name="Path 322"/><path d="m216.348 157.549-.587-1.065c.276-.152.57-.29.875-.408l.442 1.133c-.256.1-.502.214-.73.34Z" fill="#c5c5c5" fill-rule="evenodd" data-name="Path 323"/><path d="m214.81 151.053-.323-1.172c.386-.107.804-.16 1.243-.16v1.215c-.33 0-.639.04-.92.117Z" fill="#c5c5c5" fill-rule="evenodd" data-name="Path 324"/><path d="m203.06 140.778-1.082.557-1.044-2.03 1.082-.556 1.044 2.03z" fill="#c5c5c5" fill-rule="evenodd" data-name="Rectangle 29"/><path d="M207.219 139.993h-1.216v-2.432h1.216v2.432z" fill="#c5c5c5" fill-rule="evenodd" data-name="Rectangle 30"/><path d="M229.106 161.272h-1.216v-1.216h1.216v1.216z" fill="#c5c5c5" fill-rule="evenodd" data-name="Rectangle 31"/><path d="m226.008 168.754-.568-1.075 1.254-.663a2.434 2.434 0 0 0 1.196-2.096v-2.432h1.216v2.432c0 1.299-.699 2.51-1.823 3.159l-1.275.675Z" fill="#c5c5c5" fill-rule="evenodd" data-name="Path 325"/><path d="M215.73 160.664c-.14 0-.279-.024-.41-.071l-16.809-5.708.391-1.152 16.818 5.712 9.792-4.876 2.961-11.53a.611.611 0 0 0 .025-.17v-2.876l-16.41-3.034-.006 2.25c0 .17-.023.344-.067.49l-1.547 6.024-1.178-.302 1.553-6.045a.603.603 0 0 0 .024-.166v-2.258c0-.67.545-1.216 1.215-1.216l.147.012 16.439 3.042c.573.051 1.046.572 1.046 1.203v2.875c0 .164-.022.327-.066.485l-3.097 12.056-10.264 5.12a1.192 1.192 0 0 1-.557.135Z" fill="#c5c5c5" fill-rule="evenodd" data-name="Path 326"/><path d="m199.412 143.21-1.082.557-1.044-2.03 1.082-.556 1.044 2.03z" fill="#c5c5c5" fill-rule="evenodd" data-name="Rectangle 32"/></g></svg>