<svg xmlns="http://www.w3.org/2000/svg" width="29.026" height="31.079" viewBox="18 17 29.026 31.079"><path d="M45.379 44.91c0-.46.355-.834.792-.834.437 0 .792.374.792.833 0 1.746-1.354 3.17-3.012 3.17H21.013c-1.656 0-3.013-1.428-3.013-3.17v-3.672c0-.46.355-.833.792-.833.41 0 .749.329.789.75.117.72.786.857 1.373.864.705.009 1.534-.204 2.077-.525a5.224 5.224 0 0 1 5.337 0 3.68 3.68 0 0 0 1.798.523c.658.036 1.419-.185 1.99-.523a5.235 5.235 0 0 1 5.337 0 .856.856 0 0 1 .304 1.134.771.771 0 0 1-1.077.319 3.741 3.741 0 0 0-1.84-.523 3.776 3.776 0 0 0-1.95.523 5.244 5.244 0 0 1-2.778.73 5.267 5.267 0 0 1-2.558-.73 3.718 3.718 0 0 0-1.872-.524c-.68 0-1.324.174-1.917.524-.768.453-1.824.73-2.788.733-.486 0-.978-.067-1.432-.252v1.482c0 .825.643 1.503 1.428 1.503H43.95c.783 0 1.428-.679 1.428-1.503ZM46.95 26.27c-.317-2.427-1.622-4.82-3.625-6.12l-.01-.007-.006-.004-.109-.069-.046-.027-.071-.043.001-.003A20.107 20.107 0 0 0 32.546 17a20.11 20.11 0 0 0-10.54 2.998l-.055.038-.048.029-.012.007v-.001l-.11.069-.015.01-.006.004-.022.015c-2.71 1.78-4.19 5.612-3.51 8.884.237 1.135 1.275 1.947 2.366 1.947h23.903c.52 0 .944.447.944.993s-.424.993-.944.993H20.594c-1.39 0-2.528 1.197-2.528 2.66s1.138 2.66 2.528 2.66c.994 0 2.228-.026 3.465-.051 4.874-.102 10.218-.26 14.795 1.77a15.558 15.558 0 0 1 4.9 3.423.768.768 0 0 0 1.216-.145c.983-1.46 1.878-3.835 2.05-5.618.043-.457-.275-.864-.709-.909-.433-.044-.82.29-.863.746-.126 1.31-.7 2.878-1.306 4.038a17.055 17.055 0 0 0-4.675-3.066c-4.832-2.142-10.295-2.007-15.439-1.9-1.076.022-2.149.044-3.434.044-.52 0-.944-.446-.944-.992s.424-.993.944-.993h23.903c1.39 0 2.529-1.197 2.529-2.66s-1.138-2.66-2.529-2.66H20.594c-.349 0-.742-.258-.819-.631-.537-2.587.654-5.714 2.8-7.124l.027-.018.1-.062-.001-.002.036-.021a.785.785 0 0 0 .068-.038 18.622 18.622 0 0 1 9.74-2.776c3.421 0 6.786.962 9.74 2.776l.002-.003.005.003.076.046.022.015.108.068.007.004c1.594 1.041 2.628 2.993 2.879 4.923.058.455.456.774.888.713.432-.061.736-.48.678-.935Z" fill="currentColor" fill-rule="evenodd" data-name="Path 314"/></svg>