<svg xmlns="http://www.w3.org/2000/svg" width="19.2" height="29.418"><path d="M18.233 9.068a.984.984 0 0 0-.983-.936h-3.417l-.825-5.22A3.433 3.433 0 0 0 9.6 0a3.433 3.433 0 0 0-3.407 2.912l-.825 5.22H1.951a.984.984 0 0 0-.984.936L.001 28.383a.993.993 0 0 0 .27.728.99.99 0 0 0 .714.307h17.23a.99.99 0 0 0 .714-.307.99.99 0 0 0 .27-.728l-.966-19.315Zm-11.1-6.007A2.486 2.486 0 0 1 9.6.953c1.236 0 2.273.886 2.466 2.108l.801 5.071H6.332l.8-5.071ZM5.487 13.373l.008-.006h.003l.006-.005.04-.025.005-.002.019-.01.02-.014a7.957 7.957 0 0 1 8.023 0v.002l.027.015.018.01.041.024.002.002.004.002c.762.47 1.26 1.336 1.38 2.214a.3.3 0 0 1-.596.08c-.048-.35-.17-.7-.357-1.01a2.274 2.274 0 0 0-.74-.77l-.002-.001-.041-.025-.009-.006-.028-.017h-.003A7.36 7.36 0 0 0 9.6 12.828a7.364 7.364 0 0 0-3.733 1.017l-.014.008-.037.023-.01.006c-.817.51-1.27 1.642-1.066 2.577.029.135.178.229.312.229h9.097c.53 0 .962.432.962.962 0 .529-.433.961-.962.961H5.052a.36.36 0 0 0 0 .718c.489 0 .897-.007 1.307-.015 1.957-.04 4.036-.088 5.875.687a6.526 6.526 0 0 1 1.78 1.11c.23-.42.449-.988.497-1.461a.3.3 0 0 1 .599.058c-.066.645-.407 1.504-.78 2.032a.3.3 0 0 1-.464.053 5.945 5.945 0 0 0-1.865-1.238c-1.742-.735-3.776-.677-5.63-.64-.472.009-.941.018-1.32.018a.965.965 0 0 1-.962-.962c0-.53.433-.963.963-.963h9.097a.36.36 0 0 0 0-.718H5.052c-.415 0-.811-.293-.9-.704-.26-1.183.303-2.569 1.335-3.213ZM2.738 28.369a.604.604 0 1 1 0-1.207.604.604 0 0 1 0 1.207Zm11.228-4.901H5.235a1.15 1.15 0 0 1-1.147-1.147v-1.328a.302.302 0 0 1 .602-.03c.044.26.3.31.523.313a1.72 1.72 0 0 0 .79-.19 2.074 2.074 0 0 1 2.03 0c.213.118.443.183.686.188.25.013.54-.066.758-.188a2.075 2.075 0 0 1 2.031 0 .301.301 0 0 1-.295.526 1.47 1.47 0 0 0-1.442 0 2.076 2.076 0 0 1-2.031 0 1.465 1.465 0 0 0-1.442 0 2.306 2.306 0 0 1-1.06.264c-.186.001-.374-.024-.547-.09v.535c0 .299.246.544.544.544h8.731a.546.546 0 0 0 .543-.544.301.301 0 0 1 .603 0c0 .632-.515 1.147-1.146 1.147Zm2.464 4.901a.604.604 0 1 1 0-1.208.604.604 0 0 1 0 1.208Z" fill="#442213" fill-rule="evenodd" data-name="Path 358"/></svg>