<svg xmlns="http://www.w3.org/2000/svg" width="27.5" height="19.643" viewBox="27 661.357 27.5 19.643"><path d="M54.5 665.613v11.131A4.26 4.26 0 0 1 50.244 681H31.256A4.26 4.26 0 0 1 27 676.744v-11.13a4.26 4.26 0 0 1 4.256-4.257h18.988a4.26 4.26 0 0 1 4.256 4.256Zm-18.333 2.947v-1.31a1.31 1.31 0 0 0-1.31-1.31h-2.619a1.31 1.31 0 0 0-1.31 1.31v1.31c0 .722.587 1.31 1.31 1.31h2.62a1.31 1.31 0 0 0 1.309-1.31Zm-1.31 6.875a.983.983 0 0 0-.982-.983h-1.964a.983.983 0 0 0 0 1.965h1.964c.542 0 .982-.44.982-.982Zm5.238 0a.983.983 0 0 0-.982-.983H37.15a.983.983 0 0 0 0 1.965h1.964c.542 0 .982-.44.982-.982Zm5.238 0a.983.983 0 0 0-.982-.983h-1.964a.983.983 0 0 0 0 1.965h1.964c.542 0 .982-.44.982-.982Zm5.238 0a.983.983 0 0 0-.982-.983h-1.964a.983.983 0 0 0 0 1.965h1.964c.542 0 .982-.44.982-.982Zm0-8.512a.983.983 0 0 0-.982-.982h-8.512a.983.983 0 0 0 0 1.964h8.512c.542 0 .982-.44.982-.982Z" fill="#442213" fill-rule="evenodd" data-name="Path 361"/></svg>