<svg xmlns="http://www.w3.org/2000/svg" width="30.041" height="34.545" viewBox="41.98 135.267 30.041 34.545"><g data-name="Group 96"><path d="m50.758 166.662-4.745.446a.928.928 0 0 1-1.013-.84l-1.768-18.798a.93.93 0 0 1 .25-.726l3.253-3.434a.624.624 0 1 0-.907-.859l-3.252 3.434a2.175 2.175 0 0 0-.587 1.703l1.768 18.798a2.181 2.181 0 0 0 2.373 1.965l4.745-.446a.624.624 0 1 0-.117-1.243Z" fill="currentColor" fill-rule="evenodd" data-name="Path 306"/><path d="M63.292 156.652a.69.69 0 1 0-.53 1.277c.17.071.358.072.528 0a.685.685 0 0 0 .375-.373.687.687 0 0 0 0-.53.687.687 0 0 0-.373-.374Z" fill="currentColor" fill-rule="evenodd" data-name="Path 307"/><path d="M54.768 153.117a.693.693 0 1 0-.533 1.279.693.693 0 0 0 .533-1.28Z" fill="currentColor" fill-rule="evenodd" data-name="Path 308"/><path d="m71.844 160.64-7.84-18.967a2.314 2.314 0 0 0-1.395-1.308l-9.84-3.336a2.318 2.318 0 0 0-2.55.754c-1.553-1.39-3.221-2.448-4.515-2.512-.729-.038-1.316.226-1.715.757a1.93 1.93 0 0 0-.334 1.638c.42 1.818 3.062 3.498 4.445 4.266l-2.76 5.57a2.314 2.314 0 0 0-.066 1.912l7.84 18.967a2.3 2.3 0 0 0 1.251 1.253 2.311 2.311 0 0 0 1.772.001l14.452-5.973a2.299 2.299 0 0 0 1.253-1.251 2.3 2.3 0 0 0 .002-1.771Zm-23.19-19.827c-2.074-1.153-3.567-2.493-3.782-3.427-.055-.24-.02-.428.116-.609.098-.13.262-.279.654-.26.991.05 2.502 1.055 3.956 2.393l-.943 1.903Zm3.809 1.325c.187.265.364.527.518.782a.623.623 0 1 0 1.068-.647c-.13-.214-.277-.437-.434-.665a1.943 1.943 0 0 1 2.017 1.195c.2.485.2 1.018-.001 1.503a1.951 1.951 0 0 1-1.064 1.062 1.967 1.967 0 0 1-2.565-1.065 1.963 1.963 0 0 1 .46-2.165Zm2.04 14.392c-.36 0-.72-.071-1.063-.214a2.752 2.752 0 0 1-1.5-1.501 2.776 2.776 0 0 1 1.503-3.622 2.753 2.753 0 0 1 2.122.002 2.755 2.755 0 0 1 1.5 1.502 2.776 2.776 0 0 1-2.563 3.833Zm1.865 5.806a1.04 1.04 0 0 1-.96-1.44l4.793-11.545a1.04 1.04 0 1 1 1.921.798l-4.793 11.545a1.04 1.04 0 0 1-.96.642Zm9.22-3.982a2.755 2.755 0 0 1-1.503 1.499 2.768 2.768 0 0 1-2.122-.002 2.755 2.755 0 0 1-1.5-1.501 2.754 2.754 0 0 1 .003-2.122 2.754 2.754 0 0 1 1.501-1.5 2.756 2.756 0 0 1 2.123.002 2.755 2.755 0 0 1 1.499 1.502 2.754 2.754 0 0 1-.002 2.122Z" fill="currentColor" fill-rule="evenodd" data-name="Path 309"/></g></svg>