<svg xmlns="http://www.w3.org/2000/svg" width="14.974" height="44.888" viewBox="-317.444 144.943 14.974 44.888"><path d="M-305.764 189.832c.455-.092.92-.152 1.364-.28 1.34-.389 1.985-1.351 1.72-2.724-.226-1.17-.562-2.322-.888-3.47-.924-3.26-.809-6.517-.05-9.785.356-1.532.752-3.061.995-4.613.376-2.41.034-4.786-.75-7.075-.629-1.831-1.386-3.618-2.102-5.418-.966-2.43-1.33-4.978-1.513-7.564-.005-.07 0-.14 0-.206.687-.142.73-.191.73-.863 0-.394.011-.79-.015-1.182-.062-.935-.808-1.675-1.748-1.691-1.3-.024-2.6-.024-3.9 0-.939.016-1.686.753-1.748 1.69-.028.422-.017.846-.015 1.27.003.577.094.673.748.744-.047.542-.1 1.087-.14 1.633-.217 3.011-1.155 5.814-2.38 8.55-.957 2.137-1.648 4.361-1.908 6.705-.22 1.987.039 3.925.496 5.857.378 1.601.776 3.207 1.003 4.834.386 2.757.07 5.468-.798 8.121a17.69 17.69 0 0 0-.615 2.547c-.214 1.265.384 2.2 1.613 2.592.481.154.99.221 1.486.328h8.415Zm1.263-16.87c-.037.196-.06.337-.091.475-.848 3.67-.871 7.312.297 10.932.29.898.495 1.828.663 2.758.131.728-.174 1.176-.872 1.417-.355.123-.736.228-1.107.233-2.715.037-5.43.06-8.145.052-.532-.001-1.078-.109-1.593-.253-.772-.216-1.077-.691-.958-1.486.099-.66.228-1.327.442-1.957 1.295-3.804 1.47-7.654.546-11.56-.045-.192-.073-.388-.114-.61h10.932Zm.24-1.03c-.032.008-.046.016-.06.016-3.71.004-7.419.011-11.129 0-.11 0-.286-.165-.322-.286-.95-3.153-.923-6.298.098-9.434.076-.232.172-.325.424-.325 3.52.008 7.04.002 10.56.017.136 0 .354.148.396.273 1.066 3.232 1.102 6.473.032 9.739Zm-10.954-11.034c.077-.21.138-.386.204-.56.712-1.849 1.418-3.7 2.148-5.54.047-.118.276-.23.421-.231 1.65-.017 3.3-.007 4.95-.015.25 0 .374.063.466.326a132.15 132.15 0 0 0 1.337 3.605c.308.798.646 1.585.986 2.415h-10.512Zm2.712-7.348c.203-1.663.4-3.275.594-4.878h3.878l.59 4.878h-5.062Zm5.261-5.911h-5.46c0-.288-.007-.548.002-.808.02-.54.334-.889.87-.896 1.24-.017 2.48-.017 3.719 0 .534.007.85.358.868.897.009.26.001.52.001.807Z" fill="currentColor" fill-rule="evenodd" data-name="Path 328"/></svg>