<svg xmlns="http://www.w3.org/2000/svg" width="33.517" height="33.517" viewBox="77.664 53.248 33.517 33.517"><g data-name="Group 151"><g data-name="Group 148"><path d="M100.616 58.574c-.939-.673-1.877-1.349-2.825-2.01a.962.962 0 0 1-.423-.615c-.187-.805-.642-1.44-1.288-1.95-.547-.433-1.186-.625-1.854-.751h-13.42c-.426.152-.88.251-1.271.465-1.002.544-1.605 1.403-1.813 2.531-.01.05-.038.098-.058.146v13.551c.016.028.04.054.047.083.41 1.958 1.767 3.063 3.77 3.064h7.897c0-.818.01-1.59-.003-2.363-.02-1.297.265-2.51 1.054-3.55.042-.056.336-.426.375-.484.068-.1.237-.28.335-.351.58-.424 1.215-.725 1.844-1.01.714-.323 1.49-.385 2.273-.371.738.012 1.477.002 2.248.002 0-.708.01-1.382-.006-2.055-.004-.212.068-.332.238-.451.964-.677 1.92-1.365 2.877-2.05.773-.554.775-1.278.003-1.831Z" fill="#442213" fill-rule="evenodd" data-name="Path 340"/><path d="M94.619 86.765c-.668-.125-1.307-.318-1.854-.75-.646-.51-1.101-1.145-1.288-1.95a.963.963 0 0 0-.422-.616c-.949-.66-1.886-1.336-2.825-2.008-.773-.554-.772-1.278 0-1.83.93-.667 1.857-1.34 2.798-1.992.229-.159.323-.32.32-.607-.014-2.083.036-4.167-.019-6.248-.059-2.197 1.67-3.88 3.833-3.853 4.067.05 8.135.013 12.202.014 2.003.001 3.36 1.106 3.77 3.064.006.03.031.055.047.083v13.551c-.02.049-.049.096-.058.146-.209 1.128-.811 1.987-1.813 2.532-.392.213-.846.313-1.271.464h-13.42Z" fill="#442213" fill-rule="evenodd" data-name="Path 341"/></g><g data-name="Group 149"><path d="M87.617 65.822a3.886 3.886 0 0 1-2.27.715c-.93 0-1.676-.265-2.237-.796-.515-.484-.773-1.11-.773-1.879 0-.507.123-.968.37-1.383.222-.392.53-.7.921-.923-.645-.4-.968-1.018-.968-1.856 0-.753.242-1.356.726-1.81.423-.4.953-.6 1.591-.6h1.983v1.085h-1.787c-.46 0-.814.153-1.06.46-.2.247-.3.547-.3.9 0 .377.138.688.415.934.269.238.623.357 1.06.357h2.156v1.095h-2.063c-.646 0-1.138.18-1.476.542-.269.292-.403.653-.403 1.084 0 .538.219.964.657 1.28.36.268.807.403 1.337.403.623 0 1.168-.15 1.637-.45l.484.842Z" fill="#fff" fill-rule="evenodd" data-name="Path 342"/></g><g data-name="Group 150"><path d="M104.096 78.422c-.067.776-.444 1.137-1.16 1.345-1.102.371-3.945.968-4.345 1.041-.169-.045-.4-1.075-.259-1.188.394-.078.952-.185 1.565-.315-.22-.895-.698-3.079-.89-3.98-.174-.832-.342-1.603-.387-1.851.045-.175 1.193-.366 1.34-.242.061.14.134.518.258 1.182.113.636.625 3.326.839 4.627 1.092-.265 1.396-.372 1.542-.467.169-.152.225-.45.248-.912.05-1.104.124-3.985.101-4.334.118-.158 1.188-.197 1.35-.08.057.215-.1 3.89-.202 5.174Z" fill="#fff" fill-rule="evenodd" data-name="Path 343"/></g></g></svg>