<svg xmlns="http://www.w3.org/2000/svg" width="22.219" height="22.226" viewBox="283.504 758.343 22.219 22.226"><g data-name="Group 78"><path d="m305.37 759.676-.982-.979a1.213 1.213 0 0 0-1.714 0l-1.196 1.197 2.616 2.767 1.273-1.273a1.21 1.21 0 0 0 .002-1.712Z" fill="#442213" fill-rule="evenodd" data-name="Path 293"/><path d="M300.729 767.05v11.452H285.57v-15.158h11.435l2.067-2.067h-14.02c-.852 0-1.55.697-1.55 1.55v16.192c0 .852.698 1.55 1.55 1.55h16.193c.852 0 1.55-.698 1.55-1.55v-14.037l-2.067 2.068Z" fill="#442213" fill-rule="evenodd" data-name="Path 294"/><path d="M293.381 767.992v.01l-.084.083a.139.139 0 0 0-.039.06l-1.222 3.135c-.003.004-.007.005-.01.007l-.344.888a.173.173 0 0 0 .039.185.173.173 0 0 0 .184.038l.877-.343.007-.008 3.131-1.24a.215.215 0 0 0 .059-.04l.083-.084h.01l7.604-7.605-2.616-2.766-7.679 7.68Zm-.29 3.576c.093-.235.096-.445-.022-.562-.118-.118-.33-.117-.566-.02l.996-2.576.928-.005.005.005-.02.02-.098 1.321 1.32-.099.02-.02v.92l-2.564 1.016Z" fill="#442213" fill-rule="evenodd" data-name="Path 295"/></g></svg>