<svg xmlns="http://www.w3.org/2000/svg" width="27.586" height="27.586" viewBox="20.414 851.751 27.586 27.586"><g data-name="Group 92"><g data-name="Group 91"><path d="M34.082 852.773h0a.902.902 0 0 0 .727.76c2.734.526 5.33 1.92 7.41 4 2.079 2.079 3.473 4.675 3.998 7.41.073.38.377.673.76.726h0a.899.899 0 0 0 1.007-1.06c-.593-3.088-2.16-6.012-4.495-8.347s-5.26-3.902-8.348-4.495a.899.899 0 0 0-1.059 1.006Z" stroke-linejoin="round" stroke-linecap="round" stroke="currentColor" fill="transparent" data-name="Path 310"/><path d="M34.61 856.608h0c.048.346.293.63.626.736 1.625.512 3.157 1.448 4.44 2.73 1.283 1.284 2.219 2.816 2.731 4.44.105.334.39.579.736.626h0a.898.898 0 0 0 .981-1.155c-.598-1.904-1.686-3.69-3.177-5.182-1.49-1.49-3.277-2.578-5.18-3.177a.898.898 0 0 0-1.157.982Z" stroke-linejoin="round" stroke-linecap="round" stroke="currentColor" fill="transparent" data-name="Path 311"/><path d="M35.185 860.78h0c.038.272.197.51.432.65.539.321 1.05.72 1.517 1.186.468.468.866.979 1.187 1.518.14.235.378.394.649.431h0a.898.898 0 0 0 .894-1.348 9.543 9.543 0 0 0-1.459-1.871 9.54 9.54 0 0 0-1.871-1.46.898.898 0 0 0-1.349.895Z" stroke-linejoin="round" stroke-linecap="round" stroke="currentColor" fill="transparent" data-name="Path 312"/></g><path d="M46.53 875.266h0a3.189 3.189 0 0 0-1.327-3.215l-3.544-2.436a3.268 3.268 0 0 0-4.16.38h0a3.284 3.284 0 0 1-4.454.16 30.272 30.272 0 0 1-3.45-3.449 3.284 3.284 0 0 1 .162-4.454h0a3.268 3.268 0 0 0 .38-4.16l-2.437-3.544a3.189 3.189 0 0 0-3.215-1.328h0a4.8 4.8 0 0 0-2.52 1.349c-3.42 3.42-.995 11.389 5.417 17.8 6.411 6.412 14.38 8.837 17.8 5.418a4.8 4.8 0 0 0 1.349-2.521Z" stroke-linejoin="round" stroke-linecap="round" stroke="currentColor" fill="transparent" data-name="Path 313"/></g></svg>