<svg xmlns="http://www.w3.org/2000/svg" width="20.84" height="29.605" viewBox="-1775.169 2511.153 20.84 29.605"><g data-name="frame"><path d="M-1764.75 2511.153a7.025 7.025 0 0 0-.177 14.047c.108-.015.218-.015.326 0h.103a7.025 7.025 0 0 0-.251-14.047Z" fill="#341910" fill-rule="evenodd" data-name="Vector"/><path d="M-1757.23 2529.137a14.697 14.697 0 0 0-15.024 0 5.842 5.842 0 0 0-2.916 4.78 5.793 5.793 0 0 0 2.901 4.752 13.676 13.676 0 0 0 7.52 2.087c2.655.05 5.268-.676 7.519-2.087a5.84 5.84 0 0 0 2.9-4.78 5.828 5.828 0 0 0-2.9-4.752Z" fill="#341910" fill-rule="evenodd" data-name="Vector-2"/></g></svg>